<svg xmlns="http://www.w3.org/2000/svg" xmlns:xlink="http://www.w3.org/1999/xlink" id="processonSvg1000" viewBox="59.0 19.0 896.5 894.5" width="896.5" height="894.5"><defs id="ProcessOnDefs1001"><marker id="ProcessOnMarker1017" markerUnits="userSpaceOnUse" orient="auto" markerWidth="16.23606797749979" markerHeight="10.550836550532098" viewBox="-1.0 -1.3763819204711736 16.23606797749979 10.550836550532098" refX="-1.0" refY="3.8990363547948754"><path id="ProcessOnPath1018" d="M12.0 3.8990363547948754L0.0 7.798072709589751V0.0Z" stroke="#323232" stroke-width="2.0" fill="#323232" transform="matrix(1.0,0.0,0.0,1.0,0.0,0.0)"/></marker><marker id="ProcessOnMarker1026" markerUnits="userSpaceOnUse" orient="auto" markerWidth="16.23606797749979" markerHeight="10.550836550532098" viewBox="-1.0 -1.3763819204711736 16.23606797749979 10.550836550532098" refX="-1.0" refY="3.8990363547948754"><path id="ProcessOnPath1027" d="M12.0 3.8990363547948754L0.0 7.798072709589751V0.0Z" stroke="#323232" stroke-width="2.0" fill="#323232" transform="matrix(1.0,0.0,0.0,1.0,0.0,0.0)"/></marker><marker id="ProcessOnMarker1033" markerUnits="userSpaceOnUse" orient="auto" markerWidth="16.23606797749979" markerHeight="10.550836550532098" viewBox="-1.0 -1.3763819204711736 16.23606797749979 10.550836550532098" refX="-1.0" refY="3.8990363547948754"><path id="ProcessOnPath1034" d="M12.0 3.8990363547948754L0.0 7.798072709589751V0.0Z" stroke="#323232" stroke-width="2.0" fill="#323232" transform="matrix(1.0,0.0,0.0,1.0,0.0,0.0)"/></marker><marker id="ProcessOnMarker1045" markerUnits="userSpaceOnUse" orient="auto" markerWidth="16.23606797749979" markerHeight="10.550836550532098" viewBox="-1.0 -1.3763819204711736 16.23606797749979 10.550836550532098" refX="-1.0" refY="3.8990363547948754"><path id="ProcessOnPath1046" d="M12.0 3.8990363547948754L0.0 7.798072709589751V0.0Z" stroke="#323232" stroke-width="2.0" fill="#323232" transform="matrix(1.0,0.0,0.0,1.0,0.0,0.0)"/></marker><marker id="ProcessOnMarker1055" markerUnits="userSpaceOnUse" orient="auto" markerWidth="16.23606797749979" markerHeight="10.550836550532098" viewBox="-1.0 -1.3763819204711736 16.23606797749979 10.550836550532098" refX="-1.0" refY="3.8990363547948754"><path id="ProcessOnPath1056" d="M12.0 3.8990363547948754L0.0 7.798072709589751V0.0Z" stroke="#323232" stroke-width="2.0" fill="#323232" transform="matrix(1.0,0.0,0.0,1.0,0.0,0.0)"/></marker><marker id="ProcessOnMarker1064" markerUnits="userSpaceOnUse" orient="auto" markerWidth="16.23606797749979" markerHeight="10.550836550532098" viewBox="-1.0 -1.3763819204711736 16.23606797749979 10.550836550532098" refX="-1.0" refY="3.8990363547948754"><path id="ProcessOnPath1065" d="M12.0 3.8990363547948754L0.0 7.798072709589751V0.0Z" stroke="#323232" stroke-width="2.0" fill="#323232" transform="matrix(1.0,0.0,0.0,1.0,0.0,0.0)"/></marker><marker id="ProcessOnMarker1073" markerUnits="userSpaceOnUse" orient="auto" markerWidth="16.23606797749979" markerHeight="10.550836550532098" viewBox="-1.0 -1.3763819204711736 16.23606797749979 10.550836550532098" refX="-1.0" refY="3.8990363547948754"><path id="ProcessOnPath1074" d="M12.0 3.8990363547948754L0.0 7.798072709589751V0.0Z" stroke="#323232" stroke-width="2.0" fill="#323232" transform="matrix(1.0,0.0,0.0,1.0,0.0,0.0)"/></marker><marker id="ProcessOnMarker1095" markerUnits="userSpaceOnUse" orient="auto" markerWidth="16.23606797749979" markerHeight="10.550836550532098" viewBox="-1.0 -1.3763819204711736 16.23606797749979 10.550836550532098" refX="-1.0" refY="3.8990363547948754"><path id="ProcessOnPath1096" d="M12.0 3.8990363547948754L0.0 7.798072709589751V0.0Z" stroke="#323232" stroke-width="2.0" fill="#323232" transform="matrix(1.0,0.0,0.0,1.0,0.0,0.0)"/></marker><marker id="ProcessOnMarker1105" markerUnits="userSpaceOnUse" orient="auto" markerWidth="16.23606797749979" markerHeight="10.550836550532098" viewBox="-1.0 -1.3763819204711736 16.23606797749979 10.550836550532098" refX="-1.0" refY="3.8990363547948754"><path id="ProcessOnPath1106" d="M12.0 3.8990363547948754L0.0 7.798072709589751V0.0Z" stroke="#323232" stroke-width="2.0" fill="#323232" transform="matrix(1.0,0.0,0.0,1.0,0.0,0.0)"/></marker><marker id="ProcessOnMarker1114" markerUnits="userSpaceOnUse" orient="auto" markerWidth="16.23606797749979" markerHeight="10.550836550532098" viewBox="-1.0 -1.3763819204711736 16.23606797749979 10.550836550532098" refX="-1.0" refY="3.8990363547948754"><path id="ProcessOnPath1115" d="M12.0 3.8990363547948754L0.0 7.798072709589751V0.0Z" stroke="#323232" stroke-width="2.0" fill="#323232" transform="matrix(1.0,0.0,0.0,1.0,0.0,0.0)"/></marker><marker id="ProcessOnMarker1118" markerUnits="userSpaceOnUse" orient="auto" markerWidth="16.23606797749979" markerHeight="10.550836550532098" viewBox="-1.0 -1.3763819204711736 16.23606797749979 10.550836550532098" refX="-1.0" refY="3.8990363547948754"><path id="ProcessOnPath1119" d="M12.0 3.8990363547948754L0.0 7.798072709589751V0.0Z" stroke="#323232" stroke-width="2.0" fill="#323232" transform="matrix(1.0,0.0,0.0,1.0,0.0,0.0)"/></marker><marker id="ProcessOnMarker1129" markerUnits="userSpaceOnUse" orient="auto" markerWidth="16.23606797749979" markerHeight="10.550836550532098" viewBox="-1.0 -1.3763819204711736 16.23606797749979 10.550836550532098" refX="-1.0" refY="3.8990363547948754"><path id="ProcessOnPath1130" d="M12.0 3.8990363547948754L0.0 7.798072709589751V0.0Z" stroke="#323232" stroke-width="2.0" fill="#323232" transform="matrix(1.0,0.0,0.0,1.0,0.0,0.0)"/></marker><marker id="ProcessOnMarker1138" markerUnits="userSpaceOnUse" orient="auto" markerWidth="16.23606797749979" markerHeight="10.550836550532098" viewBox="-1.0 -1.3763819204711736 16.23606797749979 10.550836550532098" refX="-1.0" refY="3.8990363547948754"><path id="ProcessOnPath1139" d="M12.0 3.8990363547948754L0.0 7.798072709589751V0.0Z" stroke="#323232" stroke-width="2.0" fill="#323232" transform="matrix(1.0,0.0,0.0,1.0,0.0,0.0)"/></marker><marker id="ProcessOnMarker1177" markerUnits="userSpaceOnUse" orient="auto" markerWidth="16.23606797749979" markerHeight="10.550836550532098" viewBox="-1.0 -1.3763819204711736 16.23606797749979 10.550836550532098" refX="-1.0" refY="3.8990363547948754"><path id="ProcessOnPath1178" d="M12.0 3.8990363547948754L0.0 7.798072709589751V0.0Z" stroke="#323232" stroke-width="2.0" fill="#323232" transform="matrix(1.0,0.0,0.0,1.0,0.0,0.0)"/></marker><marker id="ProcessOnMarker1190" markerUnits="userSpaceOnUse" orient="auto" markerWidth="16.23606797749979" markerHeight="10.550836550532098" viewBox="-1.0 -1.3763819204711736 16.23606797749979 10.550836550532098" refX="-1.0" refY="3.8990363547948754"><path id="ProcessOnPath1191" d="M12.0 3.8990363547948754L0.0 7.798072709589751V0.0Z" stroke="#323232" stroke-width="2.0" fill="#323232" transform="matrix(1.0,0.0,0.0,1.0,0.0,0.0)"/></marker><marker id="ProcessOnMarker1194" markerUnits="userSpaceOnUse" orient="auto" markerWidth="16.23606797749979" markerHeight="10.550836550532098" viewBox="-1.0 -1.3763819204711736 16.23606797749979 10.550836550532098" refX="-1.0" refY="3.8990363547948754"><path id="ProcessOnPath1195" d="M12.0 3.8990363547948754L0.0 7.798072709589751V0.0Z" stroke="#323232" stroke-width="2.0" fill="#323232" transform="matrix(1.0,0.0,0.0,1.0,0.0,0.0)"/></marker><marker id="ProcessOnMarker1206" markerUnits="userSpaceOnUse" orient="auto" markerWidth="16.23606797749979" markerHeight="10.550836550532098" viewBox="-1.0 -1.3763819204711736 16.23606797749979 10.550836550532098" refX="-1.0" refY="3.8990363547948754"><path id="ProcessOnPath1207" d="M12.0 3.8990363547948754L0.0 7.798072709589751V0.0Z" stroke="#323232" stroke-width="2.0" fill="#323232" transform="matrix(1.0,0.0,0.0,1.0,0.0,0.0)"/></marker><marker id="ProcessOnMarker1213" markerUnits="userSpaceOnUse" orient="auto" markerWidth="16.23606797749979" markerHeight="10.550836550532098" viewBox="-1.0 -1.3763819204711736 16.23606797749979 10.550836550532098" refX="-1.0" refY="3.8990363547948754"><path id="ProcessOnPath1214" d="M12.0 3.8990363547948754L0.0 7.798072709589751V0.0Z" stroke="#323232" stroke-width="2.0" fill="#323232" transform="matrix(1.0,0.0,0.0,1.0,0.0,0.0)"/></marker><marker id="ProcessOnMarker1220" markerUnits="userSpaceOnUse" orient="auto" markerWidth="16.23606797749979" markerHeight="10.550836550532098" viewBox="-1.0 -1.3763819204711736 16.23606797749979 10.550836550532098" refX="-1.0" refY="3.8990363547948754"><path id="ProcessOnPath1221" d="M12.0 3.8990363547948754L0.0 7.798072709589751V0.0Z" stroke="#323232" stroke-width="2.0" fill="#323232" transform="matrix(1.0,0.0,0.0,1.0,0.0,0.0)"/></marker><marker id="ProcessOnMarker1227" markerUnits="userSpaceOnUse" orient="auto" markerWidth="16.23606797749979" markerHeight="10.550836550532098" viewBox="-1.0 -1.3763819204711736 16.23606797749979 10.550836550532098" refX="-1.0" refY="3.8990363547948754"><path id="ProcessOnPath1228" d="M12.0 3.8990363547948754L0.0 7.798072709589751V0.0Z" stroke="#323232" stroke-width="2.0" fill="#323232" transform="matrix(1.0,0.0,0.0,1.0,0.0,0.0)"/></marker><marker id="ProcessOnMarker1234" markerUnits="userSpaceOnUse" orient="auto" markerWidth="16.23606797749979" markerHeight="10.550836550532098" viewBox="-1.0 -1.3763819204711736 16.23606797749979 10.550836550532098" refX="-1.0" refY="3.8990363547948754"><path id="ProcessOnPath1235" d="M12.0 3.8990363547948754L0.0 7.798072709589751V0.0Z" stroke="#323232" stroke-width="2.0" fill="#323232" transform="matrix(1.0,0.0,0.0,1.0,0.0,0.0)"/></marker><marker id="ProcessOnMarker1238" markerUnits="userSpaceOnUse" orient="auto" markerWidth="16.23606797749979" markerHeight="10.550836550532098" viewBox="-1.0 -1.3763819204711736 16.23606797749979 10.550836550532098" refX="-1.0" refY="3.8990363547948754"><path id="ProcessOnPath1239" d="M12.0 3.8990363547948754L0.0 7.798072709589751V0.0Z" stroke="#323232" stroke-width="2.0" fill="#323232" transform="matrix(1.0,0.0,0.0,1.0,0.0,0.0)"/></marker><marker id="ProcessOnMarker1242" markerUnits="userSpaceOnUse" orient="auto" markerWidth="16.23606797749979" markerHeight="10.550836550532098" viewBox="-1.0 -1.3763819204711736 16.23606797749979 10.550836550532098" refX="-1.0" refY="3.8990363547948754"><path id="ProcessOnPath1243" d="M12.0 3.8990363547948754L0.0 7.798072709589751V0.0Z" stroke="#323232" stroke-width="2.0" fill="#323232" transform="matrix(1.0,0.0,0.0,1.0,0.0,0.0)"/></marker><marker id="ProcessOnMarker1246" markerUnits="userSpaceOnUse" orient="auto" markerWidth="16.23606797749979" markerHeight="10.550836550532098" viewBox="-1.0 -1.3763819204711736 16.23606797749979 10.550836550532098" refX="-1.0" refY="3.8990363547948754"><path id="ProcessOnPath1247" d="M12.0 3.8990363547948754L0.0 7.798072709589751V0.0Z" stroke="#323232" stroke-width="2.0" fill="#323232" transform="matrix(1.0,0.0,0.0,1.0,0.0,0.0)"/></marker><marker id="ProcessOnMarker1250" markerUnits="userSpaceOnUse" orient="auto" markerWidth="16.23606797749979" markerHeight="10.550836550532098" viewBox="-1.0 -1.3763819204711736 16.23606797749979 10.550836550532098" refX="-1.0" refY="3.8990363547948754"><path id="ProcessOnPath1251" d="M12.0 3.8990363547948754L0.0 7.798072709589751V0.0Z" stroke="#323232" stroke-width="2.0" fill="#323232" transform="matrix(1.0,0.0,0.0,1.0,0.0,0.0)"/></marker></defs><g id="ProcessOnG1002"><path id="ProcessOnPath1003" d="M59.0 19.0H955.5V913.5H59.0V19.0Z" fill="#ffffff"/><g id="ProcessOnG1004"><g id="ProcessOnG1005" transform="matrix(1.0,0.0,0.0,1.0,403.5,39.0)" opacity="1.0"><path id="ProcessOnPath1006" d="M15.333333333333334 0.0L108.0 0.0L92.66666666666667 46.0L0.0 46.0L15.333333333333334 0.0Z" stroke="#323232" stroke-width="2.0" stroke-dasharray="none" fill="#6ed464"/><g id="ProcessOnG1007" transform="matrix(1.0,0.0,0.0,1.0,16.2,6.75)"><text id="ProcessOnText1008" fill="#323232" font-weight="normal" font-style="normal" text-decoration="none" font-family="Arial,宋体" text-anchor="middle" font-size="13" x="36.8" y="13.325">raw data</text><text id="ProcessOnText1009" fill="#323232" font-weight="normal" font-style="normal" text-decoration="none" font-family="Arial,宋体" text-anchor="middle" font-size="13" x="36.8" y="29.575">(*.fq)</text></g></g><g id="ProcessOnG1010" transform="matrix(1.0,0.0,0.0,1.0,394.5,115.0)" opacity="1.0"><path id="ProcessOnPath1011" d="M0.0 0.0L126.0 0.0L126.0 46.0L0.0 46.0Z" stroke="#323232" stroke-width="2.0" stroke-dasharray="none" fill="#6ed464"/><g id="ProcessOnG1012" transform="matrix(1.0,0.0,0.0,1.0,10.0,6.75)"><text id="ProcessOnText1013" fill="#323232" font-weight="normal" font-style="normal" text-decoration="none" font-family="Arial,宋体" text-anchor="middle" font-size="13" x="52.0" y="13.325">Filter</text><text id="ProcessOnText1014" fill="#323232" font-weight="normal" font-style="normal" text-decoration="none" font-family="Arial,宋体" text-anchor="middle" font-size="13" x="52.0" y="29.575">(SOAPnuke)</text></g></g><g id="ProcessOnG1015"><path id="ProcessOnPath1016" d="M457.5 161.0L457.5 172.0L457.5 172.0L457.5 173.0" stroke="#323232" stroke-width="2.0" stroke-dasharray="none" fill="none" marker-end="url(#ProcessOnMarker1017)"/></g><g id="ProcessOnG1019" transform="matrix(1.0,0.0,0.0,1.0,384.5,183.0)" opacity="1.0"><path id="ProcessOnPath1020" d="M0.0 30.0L73.0 0.0L146.0 30.0L73.0 60.0L0.0 30.0Z" stroke="#323232" stroke-width="2.0" stroke-dasharray="none" fill="#6ed464"/><g id="ProcessOnG1021" transform="matrix(1.0,0.0,0.0,1.0,10.0,13.75)"><text id="ProcessOnText1022" fill="#323232" font-weight="normal" font-style="normal" text-decoration="none" font-family="Arial,宋体" text-anchor="middle" font-size="13" x="62.0" y="13.325">QC is ok?</text><text id="ProcessOnText1023" fill="#323232" font-weight="normal" font-style="normal" text-decoration="none" font-family="Arial,宋体" text-anchor="middle" font-size="13" x="62.0" y="29.575">(FastQC)</text></g></g><g id="ProcessOnG1024"><path id="ProcessOnPath1025" d="M384.5 213.0L354.5 213.0L354.5 62.0L395.93059868916697 62.0" stroke="#323232" stroke-width="2.0" stroke-dasharray="none" fill="none" marker-end="url(#ProcessOnMarker1026)"/><g id="ProcessOnG1028" transform="matrix(1.0,0.0,0.0,1.0,354.5,123.65970065541651)"><path id="ProcessOnPath1029" d="M0 0H10.0V16.25H0Z" fill="#fff" transform="matrix(1.0,0.0,0.0,1.0,-5.0,0.0)"/><text id="ProcessOnText1030" fill="#323232" font-weight="normal" font-style="normal" text-decoration="none" font-family="Arial,宋体" text-anchor="middle" font-size="13" x="0.0" y="13.325">N</text></g></g><g id="ProcessOnG1031"><path id="ProcessOnPath1032" d="M530.5 213.0L598.75 213.0L598.75 213.0L651.7639320225002 213.0" stroke="#323232" stroke-width="2.0" stroke-dasharray="none" fill="none" marker-end="url(#ProcessOnMarker1033)"/><g id="ProcessOnG1035" transform="matrix(1.0,0.0,0.0,1.0,591.1319660112501,204.875)"><path id="ProcessOnPath1036" d="M0 0H8.0V16.25H0Z" fill="#fff" transform="matrix(1.0,0.0,0.0,1.0,-4.0,0.0)"/><text id="ProcessOnText1037" fill="#323232" font-weight="normal" font-style="normal" text-decoration="none" font-family="Arial,宋体" text-anchor="middle" font-size="13" x="0.0" y="13.325">Y</text></g></g><g id="ProcessOnG1038" transform="matrix(1.0,0.0,0.0,1.0,667.0,191.0)" opacity="1.0"><path id="ProcessOnPath1039" d="M0.0 0.0L99.0 0.0L99.0 44.0L0.0 44.0Z" stroke="#323232" stroke-width="2.0" stroke-dasharray="none" fill="#6ed464"/><g id="ProcessOnG1040" transform="matrix(1.0,0.0,0.0,1.0,10.0,5.75)"><text id="ProcessOnText1041" fill="#323232" font-weight="normal" font-style="normal" text-decoration="none" font-family="Arial,宋体" text-anchor="middle" font-size="13" x="38.5" y="13.325">Clean data</text><text id="ProcessOnText1042" fill="#323232" font-weight="normal" font-style="normal" text-decoration="none" font-family="Arial,宋体" text-anchor="middle" font-size="13" x="38.5" y="29.575">statistics</text></g></g><g id="ProcessOnG1043"><path id="ProcessOnPath1044" d="M766.0 213.0L809.8125 213.0L809.8125 213.0L838.3889320225002 213.0" stroke="#323232" stroke-width="2.0" stroke-dasharray="none" fill="none" marker-end="url(#ProcessOnMarker1045)"/></g><g id="ProcessOnG1047" transform="matrix(1.0,0.0,0.0,1.0,853.625,178.0)" opacity="1.0"><path id="ProcessOnPath1048" d="M0.0 63.333333333333336L0.0 0.0L80.0 0.0L80.0 63.333333333333336Q60.0 50.0 40.0 63.333333333333336Q20.0 76.66666666666667 0.0 63.333333333333336Z" stroke="#323232" stroke-width="2.0" stroke-dasharray="none" fill="#6ed464"/><g id="ProcessOnG1049" transform="matrix(1.0,0.0,0.0,1.0,0.0,7.125)"><text id="ProcessOnText1050" fill="#323232" font-weight="normal" font-style="normal" text-decoration="none" font-family="Arial,宋体" text-anchor="middle" font-size="13" x="39.0" y="13.325">*.fq</text><text id="ProcessOnText1051" fill="#323232" font-weight="normal" font-style="normal" text-decoration="none" font-family="Arial,宋体" text-anchor="middle" font-size="13" x="39.0" y="29.575">*.xls</text><text id="ProcessOnText1052" fill="#323232" font-weight="normal" font-style="normal" text-decoration="none" font-family="Arial,宋体" text-anchor="middle" font-size="13" x="39.0" y="45.825">*.png</text></g></g><g id="ProcessOnG1053"><path id="ProcessOnPath1054" d="M457.5 243.0L457.5 257.0L457.5 257.0L457.5 258.0" stroke="#323232" stroke-width="2.0" stroke-dasharray="none" fill="none" marker-end="url(#ProcessOnMarker1055)"/></g><g id="ProcessOnG1057" transform="matrix(1.0,0.0,0.0,1.0,324.0,271.0)" opacity="1.0"><path id="ProcessOnPath1058" d="M0.0 0.0L267.0 0.0L267.0 59.0L0.0 59.0Z" stroke="#323232" stroke-width="2.0" stroke-dasharray="none" fill="#6ed464"/><g id="ProcessOnG1059" transform="matrix(1.0,0.0,0.0,1.0,10.0,13.25)"><text id="ProcessOnText1060" fill="#323232" font-weight="normal" font-style="normal" text-decoration="none" font-family="Arial,宋体" text-anchor="middle" font-size="13" x="122.5" y="13.325">Align and mark duplication</text><text id="ProcessOnText1061" fill="#323232" font-weight="normal" font-style="normal" text-decoration="none" font-family="Arial,宋体" text-anchor="middle" font-size="13" x="122.5" y="29.575">(BWA-mem,SAMBLASTER,SAMBAMBA)</text></g></g><g id="ProcessOnG1062"><path id="ProcessOnPath1063" d="M591.0 300.5L629.0 300.5L629.0 300.5L651.7639320225002 300.5" stroke="#323232" stroke-width="2.0" stroke-dasharray="none" fill="none" marker-end="url(#ProcessOnMarker1064)"/></g><g id="ProcessOnG1066" transform="matrix(1.0,0.0,0.0,1.0,667.0,279.0)" opacity="1.0"><path id="ProcessOnPath1067" d="M0.0 0.0L99.0 0.0L99.0 43.0L0.0 43.0Z" stroke="#323232" stroke-width="2.0" stroke-dasharray="none" fill="#6ed464"/><g id="ProcessOnG1068" transform="matrix(1.0,0.0,0.0,1.0,10.0,5.25)"><text id="ProcessOnText1069" fill="#323232" font-weight="normal" font-style="normal" text-decoration="none" font-family="Arial,宋体" text-anchor="middle" font-size="13" x="38.5" y="13.325">Alignment</text><text id="ProcessOnText1070" fill="#323232" font-weight="normal" font-style="normal" text-decoration="none" font-family="Arial,宋体" text-anchor="middle" font-size="13" x="38.5" y="29.575">statistics</text></g></g><g id="ProcessOnG1071"><path id="ProcessOnPath1072" d="M766.0 300.5L809.8125 300.5L809.8125 300.5L838.3889320225002 300.5" stroke="#323232" stroke-width="2.0" stroke-dasharray="none" fill="none" marker-end="url(#ProcessOnMarker1073)"/></g><g id="ProcessOnG1075" transform="matrix(1.0,0.0,0.0,1.0,853.625,265.5)" opacity="1.0"><path id="ProcessOnPath1076" d="M0.0 63.333333333333336L0.0 0.0L80.0 0.0L80.0 63.333333333333336Q60.0 50.0 40.0 63.333333333333336Q20.0 76.66666666666667 0.0 63.333333333333336Z" stroke="#323232" stroke-width="2.0" stroke-dasharray="none" fill="#6ed464"/><g id="ProcessOnG1077" transform="matrix(1.0,0.0,0.0,1.0,0.0,7.125)"><text id="ProcessOnText1078" fill="#323232" font-weight="normal" font-style="normal" text-decoration="none" font-family="Arial,宋体" text-anchor="middle" font-size="13" x="39.0" y="13.325">*.bam</text><text id="ProcessOnText1079" fill="#323232" font-weight="normal" font-style="normal" text-decoration="none" font-family="Arial,宋体" text-anchor="middle" font-size="13" x="39.0" y="29.575">*.xls</text><text id="ProcessOnText1080" fill="#323232" font-weight="normal" font-style="normal" text-decoration="none" font-family="Arial,宋体" text-anchor="middle" font-size="13" x="39.0" y="45.825">*.png</text></g></g><g id="ProcessOnG1081" transform="matrix(1.0,0.0,0.0,1.0,584.25,420.0)" opacity="1.0"><path id="ProcessOnPath1082" d="M0.0 0.0L141.75 0.0L141.75 66.0L0.0 66.0Z" stroke="#323232" stroke-width="2.0" stroke-dasharray="none" fill="#6ed464"/><g id="ProcessOnG1083" transform="matrix(1.0,0.0,0.0,1.0,10.0,16.75)"><text id="ProcessOnText1084" fill="#323232" font-weight="normal" font-style="normal" text-decoration="none" font-family="Arial,宋体" text-anchor="middle" font-size="13" x="59.875" y="13.325">Call SNPs</text><text id="ProcessOnText1085" fill="#323232" font-weight="normal" font-style="normal" text-decoration="none" font-family="Arial,宋体" text-anchor="middle" font-size="13" x="59.875" y="29.575">(Speedseq var)</text></g></g><g id="ProcessOnG1086" transform="matrix(1.0,0.0,0.0,1.0,331.0,420.0)" opacity="1.0"><path id="ProcessOnPath1087" d="M0.0 0.0L225.0 0.0L225.0 66.0L0.0 66.0Z" stroke="#323232" stroke-width="2.0" stroke-dasharray="none" fill="#6ed464"/><g id="ProcessOnG1088" transform="matrix(1.0,0.0,0.0,1.0,10.0,0.5)"><text id="ProcessOnText1089" fill="#323232" font-weight="normal" font-style="normal" text-decoration="none" font-family="Arial,宋体" text-anchor="middle" font-size="13" x="101.5" y="13.325">Indel Realignment and BaseReca</text><text id="ProcessOnText1090" fill="#323232" font-weight="normal" font-style="normal" text-decoration="none" font-family="Arial,宋体" text-anchor="middle" font-size="13" x="101.5" y="29.575">libration(GATK RealignerTargetC</text><text id="ProcessOnText1091" fill="#323232" font-weight="normal" font-style="normal" text-decoration="none" font-family="Arial,宋体" text-anchor="middle" font-size="13" x="101.5" y="45.825">reater,IndelRealigner,BaseRecali</text><text id="ProcessOnText1092" fill="#323232" font-weight="normal" font-style="normal" text-decoration="none" font-family="Arial,宋体" text-anchor="middle" font-size="13" x="101.5" y="62.075">brator</text></g></g><g id="ProcessOnG1093"><path id="ProcessOnPath1094" d="M443.5 486.0L443.5 497.5L443.5 497.5L443.5 498.5" stroke="#323232" stroke-width="2.0" stroke-dasharray="none" fill="none" marker-end="url(#ProcessOnMarker1095)"/></g><g id="ProcessOnG1097" transform="matrix(1.0,0.0,0.0,1.0,329.0,509.0)" opacity="1.0"><path id="ProcessOnPath1098" d="M0.0 0.0L229.0 0.0L229.0 52.0L0.0 52.0Z" stroke="#323232" stroke-width="2.0" stroke-dasharray="none" fill="#6ed464"/><g id="ProcessOnG1099" transform="matrix(1.0,0.0,0.0,1.0,10.0,1.625)"><text id="ProcessOnText1100" fill="#323232" font-weight="normal" font-style="normal" text-decoration="none" font-family="Arial,宋体" text-anchor="middle" font-size="13" x="103.5" y="13.325">Call GVCF and VCF</text><text id="ProcessOnText1101" fill="#323232" font-weight="normal" font-style="normal" text-decoration="none" font-family="Arial,宋体" text-anchor="middle" font-size="13" x="103.5" y="29.575">(GATK HaplotypeCaller,Genotype</text><text id="ProcessOnText1102" fill="#323232" font-weight="normal" font-style="normal" text-decoration="none" font-family="Arial,宋体" text-anchor="middle" font-size="13" x="103.5" y="45.825">GVCFs)</text></g></g><g id="ProcessOnG1103"><path id="ProcessOnPath1104" d="M443.5 561.0L443.5 573.75L443.5 573.75L443.5 574.75" stroke="#323232" stroke-width="2.0" stroke-dasharray="none" fill="none" marker-end="url(#ProcessOnMarker1105)"/></g><g id="ProcessOnG1107" transform="matrix(1.0,0.0,0.0,1.0,328.875,586.5)" opacity="1.0"><path id="ProcessOnPath1108" d="M0.0 0.0L229.25 0.0L229.25 52.0L0.0 52.0Z" stroke="#323232" stroke-width="2.0" stroke-dasharray="none" fill="#6ed464"/><g id="ProcessOnG1109" transform="matrix(1.0,0.0,0.0,1.0,10.0,9.75)"><text id="ProcessOnText1110" fill="#323232" font-weight="normal" font-style="normal" text-decoration="none" font-family="Arial,宋体" text-anchor="middle" font-size="13" x="103.625" y="13.325">Indel Detection,Filteration</text><text id="ProcessOnText1111" fill="#323232" font-weight="normal" font-style="normal" text-decoration="none" font-family="Arial,宋体" text-anchor="middle" font-size="13" x="103.625" y="29.575">(GATK SelectVariants,VQSR)</text></g></g><g id="ProcessOnG1112"><path id="ProcessOnPath1113" d="M443.5 638.5L443.5 651.25L443.5 651.25L443.5 652.25" stroke="#323232" stroke-width="2.0" stroke-dasharray="none" fill="none" marker-end="url(#ProcessOnMarker1114)"/></g><g id="ProcessOnG1116"><path id="ProcessOnPath1117" d="M655.125 486.0L655.125 697.0L574.2360679774998 697.0" stroke="#323232" stroke-width="2.0" stroke-dasharray="none" fill="none" marker-end="url(#ProcessOnMarker1118)"/></g><g id="ProcessOnG1120" transform="matrix(1.0,0.0,0.0,1.0,790.375,401.0)" opacity="1.0"><path id="ProcessOnPath1121" d="M0.0 0.0L143.25 0.0L143.25 62.0L0.0 62.0Z" stroke="#323232" stroke-width="2.0" stroke-dasharray="none" fill="#6ed464"/><g id="ProcessOnG1122" transform="matrix(1.0,0.0,0.0,1.0,10.0,-1.5)"><text id="ProcessOnText1123" fill="#323232" font-weight="normal" font-style="normal" text-decoration="none" font-family="Arial,宋体" text-anchor="middle" font-size="13" x="60.625" y="13.325">call SVs</text><text id="ProcessOnText1124" fill="#323232" font-weight="normal" font-style="normal" text-decoration="none" font-family="Arial,宋体" text-anchor="middle" font-size="13" x="60.625" y="29.575">(Speedseq sv,LUMP</text><text id="ProcessOnText1125" fill="#323232" font-weight="normal" font-style="normal" text-decoration="none" font-family="Arial,宋体" text-anchor="middle" font-size="13" x="60.625" y="45.825">Y,SVTyper,CNVnat</text><text id="ProcessOnText1126" fill="#323232" font-weight="normal" font-style="normal" text-decoration="none" font-family="Arial,宋体" text-anchor="middle" font-size="13" x="60.625" y="62.075">or)</text></g></g><g id="ProcessOnG1127"><path id="ProcessOnPath1128" d="M862.0 463.0L862.0 575.0L862.0 575.0L862.0 671.7639320225002" stroke="#323232" stroke-width="2.0" stroke-dasharray="none" fill="none" marker-end="url(#ProcessOnMarker1129)"/></g><g id="ProcessOnG1131" transform="matrix(1.0,0.0,0.0,1.0,788.5,687.0)" opacity="1.0"><path id="ProcessOnPath1132" d="M0.0 0.0L147.0 0.0L147.0 50.0L0.0 50.0Z" stroke="#323232" stroke-width="2.0" stroke-dasharray="none" fill="#6ed464"/><g id="ProcessOnG1133" transform="matrix(1.0,0.0,0.0,1.0,10.0,8.75)"><text id="ProcessOnText1134" fill="#323232" font-weight="normal" font-style="normal" text-decoration="none" font-family="Arial,宋体" text-anchor="middle" font-size="13" x="62.5" y="13.325">SVs Annotation</text><text id="ProcessOnText1135" fill="#323232" font-weight="normal" font-style="normal" text-decoration="none" font-family="Arial,宋体" text-anchor="middle" font-size="13" x="62.5" y="29.575">(ANNOVAR)</text></g></g><g id="ProcessOnG1136"><path id="ProcessOnPath1137" d="M862.0 737.0L862.0 783.25L862.0 783.25L862.0 814.2639320225002" stroke="#323232" stroke-width="2.0" stroke-dasharray="none" fill="none" marker-end="url(#ProcessOnMarker1138)"/></g><g id="ProcessOnG1140" transform="matrix(1.0,0.0,0.0,1.0,812.0,829.5)" opacity="1.0"><path id="ProcessOnPath1141" d="M0.0 56.0L0.0 0.0L100.0 0.0L100.0 56.0Q75.0 40.0 50.0 56.0Q25.0 72.0 0.0 56.0Z" stroke="#323232" stroke-width="2.0" stroke-dasharray="none" fill="#6ed464"/><g id="ProcessOnG1142" transform="matrix(1.0,0.0,0.0,1.0,0.0,12.55)"><text id="ProcessOnText1143" fill="#323232" font-weight="normal" font-style="normal" text-decoration="none" font-family="Arial,宋体" text-anchor="middle" font-size="13" x="49.0" y="13.325">*.csv</text><text id="ProcessOnText1144" fill="#323232" font-weight="normal" font-style="normal" text-decoration="none" font-family="Arial,宋体" text-anchor="middle" font-size="13" x="49.0" y="29.575">*.txt</text></g></g><g id="ProcessOnG1145" transform="matrix(1.0,0.0,0.0,1.0,105.0,420.0)" opacity="1.0"><path id="ProcessOnPath1146" d="M0.0 0.0L192.0 0.0L192.0 55.0L0.0 55.0Z" stroke="#323232" stroke-width="2.0" stroke-dasharray="none" fill="#6ed464"/><g id="ProcessOnG1147" transform="matrix(1.0,0.0,0.0,1.0,10.0,3.125)"><text id="ProcessOnText1148" fill="#323232" font-weight="normal" font-style="normal" text-decoration="none" font-family="Arial,宋体" text-anchor="middle" font-size="13" x="85.0" y="13.325">IndelRealignment and </text><text id="ProcessOnText1149" fill="#323232" font-weight="normal" font-style="normal" text-decoration="none" font-family="Arial,宋体" text-anchor="middle" font-size="13" x="85.0" y="29.575">BQSR</text><text id="ProcessOnText1150" fill="#323232" font-weight="normal" font-style="normal" text-decoration="none" font-family="Arial,宋体" text-anchor="middle" font-size="13" x="85.0" y="45.825">(GATK)</text></g></g><g id="ProcessOnG1151" transform="matrix(1.0,0.0,0.0,1.0,210.0,621.5)" opacity="1.0"><path id="ProcessOnPath1152" d="M0.0 0.0L113.0 0.0L113.0 57.5L0.0 57.5Z" stroke="#323232" stroke-width="2.0" stroke-dasharray="none" fill="#6ed464"/><g id="ProcessOnG1153" transform="matrix(1.0,0.0,0.0,1.0,10.0,4.375)"><text id="ProcessOnText1154" fill="#323232" font-weight="normal" font-style="normal" text-decoration="none" font-family="Arial,宋体" text-anchor="middle" font-size="13" x="45.5" y="13.325">Call point </text><text id="ProcessOnText1155" fill="#323232" font-weight="normal" font-style="normal" text-decoration="none" font-family="Arial,宋体" text-anchor="middle" font-size="13" x="45.5" y="29.575">mutations</text><text id="ProcessOnText1156" fill="#323232" font-weight="normal" font-style="normal" text-decoration="none" font-family="Arial,宋体" text-anchor="middle" font-size="13" x="45.5" y="45.825">(muTect)</text></g></g><g id="ProcessOnG1157" transform="matrix(1.0,0.0,0.0,1.0,326.0,823.0)" opacity="1.0"><path id="ProcessOnPath1158" d="M0.0 0.0L235.0 0.0L235.0 67.0L0.0 67.0Z" stroke="#323232" stroke-width="2.0" stroke-dasharray="none" fill="#6ed464"/><g id="ProcessOnG1159" transform="matrix(1.0,0.0,0.0,1.0,10.0,17.25)"><text id="ProcessOnText1160" fill="#323232" font-weight="normal" font-style="normal" text-decoration="none" font-family="Arial,宋体" text-anchor="middle" font-size="13" x="106.5" y="13.325">SNVs and Indels Annotation</text><text id="ProcessOnText1161" fill="#323232" font-weight="normal" font-style="normal" text-decoration="none" font-family="Arial,宋体" text-anchor="middle" font-size="13" x="106.5" y="29.575">(Oncotator,VEP,ExAC,GISTIC)</text></g></g><g id="ProcessOnG1162" transform="matrix(1.0,0.0,0.0,1.0,164.375,819.5)" opacity="1.0"><path id="ProcessOnPath1163" d="M0.0 65.66666666666667L0.0 0.0L100.0 0.0L100.0 65.66666666666667Q75.0 49.0 50.0 65.66666666666667Q25.0 82.33333333333333 0.0 65.66666666666667Z" stroke="#323232" stroke-width="2.0" stroke-dasharray="none" fill="#6ed464"/><g id="ProcessOnG1164" transform="matrix(1.0,0.0,0.0,1.0,0.0,8.925000000000004)"><text id="ProcessOnText1165" fill="#323232" font-weight="normal" font-style="normal" text-decoration="none" font-family="Arial,宋体" text-anchor="middle" font-size="13" x="49.0" y="13.325">*.csv</text><text id="ProcessOnText1166" fill="#323232" font-weight="normal" font-style="normal" text-decoration="none" font-family="Arial,宋体" text-anchor="middle" font-size="13" x="49.0" y="29.575">*.xls</text><text id="ProcessOnText1167" fill="#323232" font-weight="normal" font-style="normal" text-decoration="none" font-family="Arial,宋体" text-anchor="middle" font-size="13" x="49.0" y="45.825">*.png</text></g></g><g id="ProcessOnG1168" transform="matrix(1.0,0.0,0.0,1.0,328.0,664.0)" opacity="1.0"><path id="ProcessOnPath1169" d="M0.0 0.0L231.0 0.0L231.0 66.0L0.0 66.0Z" stroke="#323232" stroke-width="2.0" stroke-dasharray="none" fill="#6ed464"/><g id="ProcessOnG1170" transform="matrix(1.0,0.0,0.0,1.0,10.0,0.5)"><text id="ProcessOnText1171" fill="#323232" font-weight="normal" font-style="normal" text-decoration="none" font-family="Arial,宋体" text-anchor="middle" font-size="13" x="104.5" y="13.325">Refine Genotypes</text><text id="ProcessOnText1172" fill="#323232" font-weight="normal" font-style="normal" text-decoration="none" font-family="Arial,宋体" text-anchor="middle" font-size="13" x="104.5" y="29.575">(GATK CalculateGenotypePosteri</text><text id="ProcessOnText1173" fill="#323232" font-weight="normal" font-style="normal" text-decoration="none" font-family="Arial,宋体" text-anchor="middle" font-size="13" x="104.5" y="45.825">ors,VariantFiltration,VariantAnno</text><text id="ProcessOnText1174" fill="#323232" font-weight="normal" font-style="normal" text-decoration="none" font-family="Arial,宋体" text-anchor="middle" font-size="13" x="104.5" y="62.075">tator)</text></g></g><g id="ProcessOnG1175"><path id="ProcessOnPath1176" d="M324.0 300.5L201.0 300.5L201.0 404.7639320225002" stroke="#323232" stroke-width="2.0" stroke-dasharray="10.0 4.0" fill="none" marker-end="url(#ProcessOnMarker1177)"/><g id="ProcessOnG1179" transform="matrix(1.0,0.0,0.0,1.0,210.3680339887499,284.25)"><path id="ProcessOnPath1180" d="M0 0H93.99999999999997V32.5H0Z" fill="#fff" transform="matrix(1.0,0.0,0.0,1.0,-46.999999999999986,0.0)"/><text id="ProcessOnText1181" fill="#323232" font-weight="normal" font-style="normal" text-decoration="none" font-family="Arial,宋体" text-anchor="middle" font-size="13" x="0.0" y="13.325">Tumor/Normal</text><text id="ProcessOnText1182" fill="#323232" font-weight="normal" font-style="normal" text-decoration="none" font-family="Arial,宋体" text-anchor="middle" font-size="13" x="0.0" y="29.575">pair</text></g></g><g id="ProcessOnG1183" transform="matrix(1.0,0.0,0.0,1.0,105.0,505.0)" opacity="1.0"><path id="ProcessOnPath1184" d="M0.0 0.0L192.0 0.0L192.0 48.0L0.0 48.0Z" stroke="#323232" stroke-width="2.0" stroke-dasharray="none" fill="#6ed464"/><g id="ProcessOnG1185" transform="matrix(1.0,0.0,0.0,1.0,10.0,7.75)"><text id="ProcessOnText1186" fill="#323232" font-weight="normal" font-style="normal" text-decoration="none" font-family="Arial,宋体" text-anchor="middle" font-size="13" x="85.0" y="13.325">Estimate Contamination</text><text id="ProcessOnText1187" fill="#323232" font-weight="normal" font-style="normal" text-decoration="none" font-family="Arial,宋体" text-anchor="middle" font-size="13" x="85.0" y="29.575">(Conpair) </text></g></g><g id="ProcessOnG1188"><path id="ProcessOnPath1189" d="M201.0 475.0L201.0 490.0L201.0 490.0L201.0 491.0" stroke="#323232" stroke-width="2.0" stroke-dasharray="none" fill="none" marker-end="url(#ProcessOnMarker1190)"/></g><g id="ProcessOnG1192"><path id="ProcessOnPath1193" d="M201.0 553.0L201.0 587.25L266.5 587.25L266.5 606.2639320225002" stroke="#323232" stroke-width="2.0" stroke-dasharray="none" fill="none" marker-end="url(#ProcessOnMarker1194)"/><g id="ProcessOnG1196" transform="matrix(1.0,0.0,0.0,1.0,226.13196601125009,579.125)"><path id="ProcessOnPath1197" d="M0 0H33.0V16.25H0Z" fill="#fff" transform="matrix(1.0,0.0,0.0,1.0,-16.5,0.0)"/><text id="ProcessOnText1198" fill="#323232" font-weight="normal" font-style="normal" text-decoration="none" font-family="Arial,宋体" text-anchor="middle" font-size="13" x="0.0" y="13.325">SNVs</text></g></g><g id="ProcessOnG1199" transform="matrix(1.0,0.0,0.0,1.0,79.0,621.5)" opacity="1.0"><path id="ProcessOnPath1200" d="M0.0 0.0L109.0 0.0L109.0 57.5L0.0 57.5Z" stroke="#323232" stroke-width="2.0" stroke-dasharray="none" fill="#6ed464"/><g id="ProcessOnG1201" transform="matrix(1.0,0.0,0.0,1.0,10.0,12.5)"><text id="ProcessOnText1202" fill="#323232" font-weight="normal" font-style="normal" text-decoration="none" font-family="Arial,宋体" text-anchor="middle" font-size="13" x="43.5" y="13.325">Call SVs</text><text id="ProcessOnText1203" fill="#323232" font-weight="normal" font-style="normal" text-decoration="none" font-family="Arial,宋体" text-anchor="middle" font-size="13" x="43.5" y="29.575">(CREST)</text></g></g><g id="ProcessOnG1204"><path id="ProcessOnPath1205" d="M201.0 553.0L201.0 587.25L133.5 587.25L133.5 606.2639320225002" stroke="#323232" stroke-width="2.0" stroke-dasharray="none" fill="none" marker-end="url(#ProcessOnMarker1206)"/><g id="ProcessOnG1208" transform="matrix(1.0,0.0,0.0,1.0,174.86803398874991,579.125)"><path id="ProcessOnPath1209" d="M0 0H23.0V16.25H0Z" fill="#fff" transform="matrix(1.0,0.0,0.0,1.0,-11.5,0.0)"/><text id="ProcessOnText1210" fill="#323232" font-weight="normal" font-style="normal" text-decoration="none" font-family="Arial,宋体" text-anchor="middle" font-size="13" x="0.0" y="13.325">SVs</text></g></g><g id="ProcessOnG1211"><path id="ProcessOnPath1212" d="M457.5 330.0L457.5 375.0L655.125 375.0L655.125 404.7639320225002" stroke="#323232" stroke-width="2.0" stroke-dasharray="none" fill="none" marker-end="url(#ProcessOnMarker1213)"/><g id="ProcessOnG1215" transform="matrix(1.0,0.0,0.0,1.0,548.6944660112501,366.875)"><path id="ProcessOnPath1216" d="M0 0H31.0V16.25H0Z" fill="#fff" transform="matrix(1.0,0.0,0.0,1.0,-15.5,0.0)"/><text id="ProcessOnText1217" fill="#323232" font-weight="normal" font-style="normal" text-decoration="none" font-family="Arial,宋体" text-anchor="middle" font-size="13" x="0.0" y="13.325">SNPs</text></g></g><g id="ProcessOnG1218"><path id="ProcessOnPath1219" d="M457.5 330.0L457.5 375.0L365.0 375.0L365.0 404.7639320225002" stroke="#323232" stroke-width="2.0" stroke-dasharray="none" fill="none" marker-end="url(#ProcessOnMarker1220)"/><g id="ProcessOnG1222" transform="matrix(1.0,0.0,0.0,1.0,418.86803398874986,366.875)"><path id="ProcessOnPath1223" d="M0 0H38.0V16.25H0Z" fill="#fff" transform="matrix(1.0,0.0,0.0,1.0,-19.0,0.0)"/><text id="ProcessOnText1224" fill="#323232" font-weight="normal" font-style="normal" text-decoration="none" font-family="Arial,宋体" text-anchor="middle" font-size="13" x="0.0" y="13.325">indels</text></g></g><g id="ProcessOnG1225"><path id="ProcessOnPath1226" d="M457.5 330.0L457.5 365.5L862.0 365.5L862.0 385.7639320225002" stroke="#323232" stroke-width="2.0" stroke-dasharray="none" fill="none" marker-end="url(#ProcessOnMarker1227)"/><g id="ProcessOnG1229" transform="matrix(1.0,0.0,0.0,1.0,652.1319660112501,357.375)"><path id="ProcessOnPath1230" d="M0 0H89.0V16.25H0Z" fill="#fff" transform="matrix(1.0,0.0,0.0,1.0,-44.5,0.0)"/><text id="ProcessOnText1231" fill="#323232" font-weight="normal" font-style="normal" text-decoration="none" font-family="Arial,宋体" text-anchor="middle" font-size="13" x="0.0" y="13.325">SVs and CNVs</text></g></g><g id="ProcessOnG1232"><path id="ProcessOnPath1233" d="M133.5 679.0L133.5 751.0L443.5 751.0L443.5 807.7639320225002" stroke="#323232" stroke-width="2.0" stroke-dasharray="none" fill="none" marker-end="url(#ProcessOnMarker1234)"/></g><g id="ProcessOnG1236"><path id="ProcessOnPath1237" d="M266.5 679.0L266.5 751.0L443.5 751.0L443.5 807.7639320225002" stroke="#323232" stroke-width="2.0" stroke-dasharray="none" fill="none" marker-end="url(#ProcessOnMarker1238)"/></g><g id="ProcessOnG1240"><path id="ProcessOnPath1241" d="M443.5 730.0L443.5 776.5L443.5 776.5L443.5 807.7639320225002" stroke="#323232" stroke-width="2.0" stroke-dasharray="none" fill="none" marker-end="url(#ProcessOnMarker1242)"/></g><g id="ProcessOnG1244"><path id="ProcessOnPath1245" d="M326.0 856.5L295.1875 856.5L295.1875 856.5L279.6110679774998 856.5" stroke="#323232" stroke-width="2.0" stroke-dasharray="none" fill="none" marker-end="url(#ProcessOnMarker1246)"/></g><g id="ProcessOnG1248"><path id="ProcessOnPath1249" d="M457.5 85.0L457.5 100.0L457.5 100.0L457.5 101.0" stroke="#323232" stroke-width="2.0" stroke-dasharray="none" fill="none" marker-end="url(#ProcessOnMarker1250)"/></g><g id="ProcessOnG1252" transform="matrix(1.0,0.0,0.0,1.0,79.0,73.5)" opacity="1.0"><path id="ProcessOnPath1253" d="M0.0 0.0L242.0 0.0L242.0 101.0L0.0 101.0Z" stroke="#323232" stroke-width="0.0" stroke-dasharray="none" fill="none"/><g id="ProcessOnG1254" transform="matrix(1.0,0.0,0.0,1.0,0.0,38.0)"><text id="ProcessOnText1255" fill="#323232" font-weight="bold" font-style="normal" text-decoration="none" font-family="Arial,宋体" text-anchor="middle" font-size="20" x="120.0" y="20.5">WGS变异检测分析流程</text></g></g></g></g></svg>